<?xml version="1.0" encoding="UTF-8"?> <svg xmlns="http://www.w3.org/2000/svg" width="140" height="150" viewBox="0 0 140 150" fill="none"><path d="M30.3931 46.8117L24.0001 41.6613L25.0869 40.2973L31.4799 45.4477L30.3931 46.8117ZM30.3655 44.2122L32.7564 41.2101L34.0364 42.2409L32.2527 44.4829L30.369 44.2122H30.3655Z" fill="white"></path><path d="M38.5698 37.8956L34.34 41.9216L28.7129 35.9347L32.9427 31.9088L33.8915 32.9014L30.9244 35.7265L32.2492 37.146L34.5332 35.1087L35.5785 36.2228L33.2808 38.2461L34.6677 39.7246L37.6382 36.903L38.5698 37.8956Z" fill="white"></path><path d="M39.0355 31.586C39.4185 31.4333 39.7807 31.3118 40.1258 31.2181C40.4708 31.1244 40.7951 31.0758 41.0987 31.0793C41.4023 31.0793 41.6817 31.1452 41.937 31.2667C42.1924 31.3917 42.4235 31.593 42.6236 31.8706L42.6443 31.8984C42.8617 32.2038 42.9997 32.5335 43.0514 32.8806C43.1032 33.2311 43.079 33.5782 42.9755 33.9287C42.8755 34.2792 42.703 34.6159 42.4615 34.9387C42.22 35.2649 41.9163 35.5599 41.5437 35.8271C41.2022 36.0736 40.8468 36.2748 40.4777 36.4206C40.1085 36.5664 39.7497 36.6705 39.4012 36.726C39.0528 36.7816 38.725 36.7954 38.4145 36.7711C38.104 36.7469 37.8384 36.6809 37.6107 36.5768L38.2834 35.015C38.5077 35.0567 38.7181 35.0844 38.9217 35.0948C39.1252 35.1087 39.3219 35.0983 39.5151 35.0705C39.7083 35.0428 39.9015 34.9838 40.0982 34.9005C40.2948 34.8172 40.4915 34.7026 40.6916 34.5569C40.8192 34.4632 40.94 34.3591 41.0504 34.2376C41.1642 34.1161 41.2539 33.9877 41.3195 33.8523C41.385 33.717 41.423 33.5816 41.4264 33.4463C41.4333 33.3109 41.3885 33.179 41.2988 33.0541C41.2332 32.9639 41.1504 32.8944 41.0435 32.8459C40.9365 32.7973 40.7985 32.773 40.626 32.7764C40.4535 32.7764 40.2465 32.8146 39.9981 32.884C39.7497 32.9534 39.453 33.0576 39.108 33.1999C38.6871 33.3803 38.2938 33.5226 37.9281 33.6267C37.5658 33.7309 37.2277 33.7795 36.9206 33.776C36.6136 33.7725 36.3272 33.7031 36.0685 33.5712C35.8097 33.4393 35.5786 33.2276 35.3716 32.943C35.1473 32.6307 35.0058 32.3044 34.9506 31.9608C34.8954 31.6207 34.9161 31.2806 35.0127 30.9474C35.1093 30.6142 35.2749 30.2949 35.5096 29.986C35.7407 29.6772 36.0305 29.3995 36.3721 29.1496C36.7274 28.8928 37.0759 28.695 37.4209 28.5631C37.7659 28.4312 38.0937 28.341 38.4042 28.2924C38.7181 28.2438 39.0114 28.2334 39.2908 28.2577C39.5703 28.282 39.8152 28.3236 40.0292 28.3826L39.3771 29.9305C38.901 29.8785 38.4973 29.8958 38.1627 29.9756C37.828 30.0589 37.5209 30.2012 37.238 30.406C37.0621 30.5309 36.9275 30.6628 36.8344 30.7947C36.7412 30.9266 36.6757 31.0515 36.6377 31.1695C36.5998 31.2875 36.586 31.4021 36.5998 31.5097C36.6101 31.6172 36.6412 31.7075 36.6929 31.7769C36.7826 31.9053 36.8999 31.9886 37.0345 32.0303C37.1725 32.0719 37.3346 32.0788 37.5278 32.058C37.7211 32.0337 37.9419 31.9817 38.1903 31.8949C38.4421 31.8116 38.7181 31.704 39.0286 31.5791L39.0355 31.586Z" fill="white"></path><path d="M51.8974 28.4555L48.2438 30.0242L48.2093 31.6276L46.498 32.3634L46.5636 23.3779L48.2886 22.6387L48.2472 28.4277L50.7485 27.3553L48.5163 25.2417L49.3616 23.6382L54.7817 28.8129L53.0704 29.5487L51.9078 28.4624L51.8974 28.4555Z" fill="white"></path><path d="M55.0508 28.8546L53.0187 20.8721L54.7023 20.4383L56.7344 28.4208L55.0508 28.8546ZM56.5792 26.7583L60.2845 25.8039L60.6916 27.4004L57.9247 28.1119L56.5792 26.7583Z" fill="white"></path><path d="M67.9989 24.5684C67.8368 24.8877 67.6366 25.1861 67.3986 25.4603C67.1605 25.7345 66.8914 25.9774 66.5947 26.1926C66.2946 26.4078 65.9668 26.5848 65.608 26.7236C65.2492 26.8624 64.8731 26.9562 64.4798 27.0047C63.8726 27.0776 63.2861 27.0395 62.7203 26.8867C62.1545 26.734 61.6508 26.4946 61.2057 26.1648C60.7606 25.8351 60.3949 25.4291 60.1017 24.9501C59.8084 24.4677 59.629 23.9402 59.56 23.3606C59.491 22.7844 59.5393 22.2257 59.7084 21.6877C59.8774 21.1498 60.1362 20.6674 60.4915 20.2405C60.8434 19.8136 61.2747 19.4596 61.7888 19.175C62.2994 18.8904 62.8617 18.7134 63.469 18.637C63.8623 18.5884 64.2521 18.5884 64.6316 18.637C65.0111 18.6856 65.3734 18.7759 65.715 18.9147C66.0565 19.05 66.3774 19.2236 66.6706 19.4318C66.9673 19.64 67.233 19.8795 67.4641 20.1537L66.129 21.2053C65.8495 20.8131 65.4907 20.5146 65.0594 20.3099C64.6247 20.1051 64.1555 20.0357 63.6449 20.0982C63.2827 20.1433 62.9514 20.2578 62.6478 20.4383C62.3442 20.6222 62.0889 20.8513 61.8819 21.1255C61.6749 21.3997 61.5197 21.712 61.4196 22.0591C61.3196 22.4061 61.292 22.7671 61.3368 23.1419C61.3817 23.5167 61.4955 23.8603 61.6749 24.1727C61.8543 24.4851 62.0786 24.7523 62.3477 24.9675C62.6168 25.1827 62.9169 25.3458 63.255 25.4499C63.5932 25.554 63.9416 25.5853 64.3039 25.5401C64.8145 25.4777 65.2526 25.2937 65.6253 24.9918C65.9979 24.6898 66.2739 24.315 66.4533 23.8638L68.0024 24.5649L67.9989 24.5684Z" fill="white"></path><path d="M68.7511 26.4633L69.0892 18.231L70.9005 18.3073L70.5624 26.5397L68.7511 26.4633ZM74.7059 18.4635L76.4931 18.5364L76.155 26.7687L74.3678 26.6959L74.5024 23.4161L71.7251 23.3016L70.9695 21.7398L74.5679 21.889L74.7094 18.467L74.7059 18.4635Z" fill="white"></path><path d="M79.881 19.1021L78.6838 27.2546L76.8898 26.9874L78.0869 18.8348L79.881 19.1021Z" fill="white"></path><path d="M88.0094 20.9936L89.3066 21.3406L89.0375 22.3645L83.7002 26.8694L82.3306 23.1558L81.1368 27.6815L79.4463 27.2303L81.5474 19.2652L82.8446 19.6123L84.4592 24.0026L88.0128 20.9936H88.0094ZM85.5115 28.8511L86.6155 24.6655L88.5993 24.013L87.2021 29.3023L85.5115 28.8511Z" fill="white"></path><path d="M92.5256 22.6977L89.5344 30.3678L87.8473 29.7014L90.8385 22.0313L92.5256 22.6977Z" fill="white"></path><path d="M95.9619 28.098C96.2689 28.3722 96.5415 28.6429 96.783 28.9067C97.0245 29.1739 97.2108 29.4411 97.3488 29.7153C97.4834 29.9895 97.5558 30.2672 97.5627 30.5552C97.5696 30.8433 97.4937 31.1383 97.3385 31.4437L97.3212 31.4749C97.1487 31.8081 96.921 32.0788 96.6346 32.2836C96.3483 32.4884 96.0274 32.6237 95.6721 32.6931C95.3167 32.7625 94.9406 32.7591 94.5439 32.6931C94.1471 32.6237 93.7435 32.4849 93.3398 32.2767C92.9638 32.0823 92.6291 31.8532 92.3289 31.5895C92.0322 31.3257 91.7769 31.0515 91.5699 30.7635C91.3629 30.4754 91.2008 30.1908 91.0835 29.8993C90.9662 29.6112 90.9006 29.3405 90.8903 29.0906L92.5773 28.983C92.6429 29.2017 92.7153 29.4064 92.7947 29.5939C92.874 29.7813 92.9741 29.9548 93.088 30.1144C93.2018 30.2741 93.3398 30.4233 93.502 30.5587C93.6641 30.694 93.8573 30.8225 94.0781 30.937C94.2196 31.0099 94.3679 31.0689 94.5232 31.114C94.6819 31.1591 94.8337 31.1834 94.9855 31.1799C95.1339 31.1799 95.2719 31.1487 95.3926 31.0932C95.5134 31.0376 95.61 30.937 95.6824 30.7982C95.7307 30.701 95.7549 30.5934 95.748 30.4754C95.7445 30.3574 95.6997 30.222 95.6203 30.0693C95.541 29.9166 95.4133 29.7466 95.2408 29.5557C95.0683 29.3648 94.8406 29.1461 94.5542 28.9032C94.2023 28.6082 93.8987 28.3201 93.64 28.039C93.3812 27.7614 93.1846 27.4802 93.05 27.2026C92.912 26.9249 92.843 26.6403 92.8465 26.3488C92.8465 26.0573 92.9258 25.7553 93.088 25.4395C93.2639 25.0959 93.4882 24.8217 93.7676 24.6169C94.0436 24.4122 94.3541 24.2768 94.6922 24.2144C95.0303 24.1519 95.3892 24.1519 95.7687 24.2213C96.1482 24.2907 96.5242 24.4191 96.9003 24.6135C97.2902 24.8148 97.6214 25.0404 97.8974 25.2868C98.1699 25.5332 98.4011 25.7866 98.5839 26.0469C98.7668 26.3072 98.9117 26.564 99.0152 26.8277C99.1187 27.088 99.1946 27.3275 99.2429 27.5462L97.5765 27.6642C97.4074 27.213 97.2073 26.859 96.9831 26.5987C96.7588 26.3384 96.4932 26.1267 96.1827 25.967C95.9895 25.8664 95.817 25.8074 95.6548 25.7796C95.4961 25.7553 95.3547 25.7518 95.2339 25.7727C95.1132 25.7935 95.0062 25.8317 94.913 25.8907C94.8233 25.9497 94.7578 26.0191 94.7198 26.0954C94.6474 26.2343 94.6267 26.3766 94.6508 26.5154C94.6784 26.6577 94.744 26.8069 94.8509 26.97C94.9579 27.1332 95.1062 27.3067 95.296 27.4906C95.4858 27.6781 95.7066 27.8794 95.955 28.098H95.9619Z" fill="white"></path><path d="M104.891 29.7361L100.098 36.4171L98.6494 35.3655L102.607 29.8472L100.533 28.3409L101.368 27.1748L104.891 29.7327V29.7361ZM105.101 29.8888L106.964 31.2424L106.129 32.4085L104.88 31.5027L105.101 29.8923V29.8888Z" fill="white"></path><path d="M108.582 34.6158L107.175 36.0735L109.348 38.2183L108.285 39.3151L106.115 37.1633L104.77 38.5515L107.695 41.4148L106.75 42.3901L102.576 38.3086L108.282 32.4016L112.46 36.483L111.511 37.4791L108.582 34.6158Z" fill="white"></path><path d="M113.033 42.6053C113.198 42.9836 113.333 43.3446 113.443 43.6847C113.55 44.0283 113.609 44.3511 113.619 44.6565C113.63 44.9619 113.578 45.2465 113.464 45.5068C113.35 45.7705 113.16 46.0066 112.888 46.2183L112.86 46.2391C112.564 46.4716 112.246 46.6209 111.901 46.6868C111.556 46.7527 111.208 46.7423 110.856 46.6521C110.504 46.5653 110.162 46.4057 109.831 46.1731C109.5 45.9441 109.193 45.6456 108.913 45.2881C108.655 44.9549 108.444 44.6044 108.282 44.24C108.12 43.8756 108.006 43.5181 107.937 43.171C107.868 42.824 107.84 42.4943 107.854 42.1819C107.868 41.8695 107.923 41.5988 108.016 41.3628L109.593 41.9771C109.562 42.2027 109.541 42.4179 109.538 42.6227C109.534 42.8274 109.548 43.0253 109.586 43.2196C109.621 43.414 109.686 43.6049 109.776 43.7992C109.866 43.9901 109.99 44.1879 110.142 44.3823C110.238 44.5072 110.349 44.6252 110.473 44.7328C110.597 44.8404 110.728 44.9272 110.863 44.9862C111.001 45.0487 111.135 45.0799 111.27 45.0799C111.404 45.0799 111.532 45.0313 111.656 44.9341C111.743 44.8647 111.808 44.7779 111.853 44.6704C111.898 44.5628 111.915 44.4205 111.905 44.2504C111.894 44.0769 111.853 43.8686 111.774 43.6222C111.698 43.3758 111.58 43.0808 111.425 42.7407C111.228 42.3242 111.073 41.9355 110.956 41.5711C110.839 41.2101 110.776 40.8735 110.766 40.5611C110.759 40.2522 110.814 39.9642 110.935 39.7004C111.056 39.4366 111.256 39.1937 111.532 38.975C111.832 38.739 112.153 38.5828 112.491 38.5134C112.829 38.444 113.164 38.451 113.499 38.5377C113.833 38.6245 114.158 38.7772 114.475 38.9993C114.792 39.2214 115.079 39.4991 115.337 39.8323C115.607 40.1793 115.814 40.5229 115.962 40.8631C116.107 41.2032 116.21 41.5294 116.269 41.8418C116.328 42.1541 116.352 42.4491 116.338 42.7303C116.324 43.0114 116.293 43.2613 116.245 43.4799L114.682 42.8864C114.713 42.4075 114.682 42.0014 114.589 41.6683C114.496 41.3351 114.34 41.0331 114.127 40.7555C113.995 40.5854 113.861 40.4535 113.726 40.3668C113.592 40.2765 113.464 40.2141 113.347 40.1828C113.226 40.1516 113.116 40.1412 113.009 40.1551C112.902 40.1689 112.815 40.2036 112.746 40.2592C112.622 40.3563 112.543 40.4743 112.508 40.6132C112.474 40.752 112.47 40.9186 112.502 41.1095C112.533 41.3004 112.595 41.5225 112.688 41.7724C112.781 42.0223 112.898 42.2964 113.033 42.6019V42.6053Z" fill="white"></path><path d="M25.9757 44.7973C19.7851 53.7082 16.1538 64.5326 16.1538 76.2055C16.1538 87.8784 19.4848 99.4884 26.6217 108.448C28.7481 111.119 31.1643 113.609 33.6538 115.941" stroke="#FFD800" stroke-width="0.77" stroke-miterlimit="10"></path><path d="M105 117.284C112.985 110.227 119.056 100.645 121.956 89.2989C124.774 78.2623 124.636 65.8032 120.211 55.2443C118.895 52.097 117.261 49.0516 115.52 46.1396" stroke="#FFD800" stroke-width="0.77" stroke-miterlimit="10"></path><path fill-rule="evenodd" clip-rule="evenodd" d="M96.1447 55.7243C89.0376 49.1995 81.3267 43.5666 71.694 41.5016C65.791 40.2313 59.9638 40.7242 54.6127 43.9171C51.3903 45.8399 49.1616 48.5157 48.6027 52.3716C48.5682 52.6076 48.4578 52.8332 48.4543 53.0658C48.4233 55.2627 47.4779 56.585 45.156 56.6301C44.4833 56.644 44.3867 57.116 44.3384 57.6817C43.8864 63.0681 43.4103 68.4546 42.9549 73.841C42.8721 74.8163 42.4684 76.0796 42.9135 76.6974C43.3517 77.3047 44.673 77.3117 45.6218 77.5025C51.6594 78.7173 57.6971 79.9112 63.7382 81.112C64.1936 81.2057 64.6421 81.3203 65.0561 81.65C58.6148 80.6574 52.177 79.6648 45.5839 78.6479C45.2526 82.3892 44.9387 85.9154 44.6282 89.4485C44.3625 92.5165 44.0589 95.5811 43.8657 98.6492C43.814 99.4717 43.9347 100.402 44.2728 101.138C46.9466 106.892 51.5697 110.248 57.7074 111.057C65.063 112.028 72.3703 111.39 79.3429 108.593C84.0453 106.708 87.385 103.453 88.6684 98.368C90.7109 90.2641 92.743 82.1567 94.7509 74.0423C94.9924 73.0705 97.3557 61.7389 97.5144 61.194C98.132 59.0908 97.6524 57.1021 96.1516 55.7243H96.1447ZM44.0244 75.8783L45.7046 58.3307C53.6777 59.7606 61.606 61.1767 69.6033 62.61C68.9892 68.6281 68.3958 74.4623 67.7782 80.5185C59.7671 78.9533 51.9458 77.4262 44.0279 75.8818L44.0244 75.8783ZM68.8857 81.9762C69.5826 75.2085 70.2761 68.4754 70.9868 61.5827C62.9274 60.1355 55.0198 58.716 47.1157 57.2999C47.1157 57.1611 47.1157 57.0258 47.1157 56.8869C48.2922 56.6891 49.5273 56.1546 50.6348 56.3525C58.0524 57.6539 65.439 59.122 72.8395 60.5103C73.5709 60.6456 73.771 60.9198 73.6778 61.6972C72.9602 67.6112 72.2978 73.5321 71.6147 79.4496C71.3732 81.5354 71.2524 81.6395 68.8857 81.9762ZM79.1428 58.362C77.1141 71.3803 75.0993 84.2842 73.0879 97.188C73.0051 97.1776 72.9257 97.1637 72.8464 97.1533C74.2505 84.3467 75.6582 71.54 77.0693 58.6639C69.8034 57.1507 62.6824 55.6653 55.5615 54.1798C55.5753 54.1 55.5891 54.0271 55.6029 53.9473C67.4021 55.4848 79.2014 57.0154 91.0007 58.5494C90.9903 58.6188 90.9869 58.6917 90.9765 58.7646C87.0676 58.6292 83.1586 58.4973 79.1462 58.3654L79.1428 58.362ZM94.5232 73.4002C94.2575 74.5282 93.9712 75.6527 93.6607 76.7702C93.2708 78.1585 92.8706 79.5433 92.5084 80.9385C92.4187 81.2821 92.0357 82.4968 91.946 82.8439L87.5471 77.4435L87.002 76.5377L89.1135 62.1137L89.7655 61.5341L96.8175 61.1871C96.1758 65.0499 95.4237 69.5721 94.5232 73.3968V73.4002Z" fill="white"></path><path d="M44.6935 60.9054L64.6154 71.6441L44.4231 62.1368L44.6935 60.9054Z" fill="white"></path><path d="M44.5856 63.5901L56.5385 70.3018L44.4231 64.7375L44.5856 63.5901Z" fill="white"></path><path d="M42.7444 116.794L43.8347 117.568L43.1929 118.484L36.4618 121.125L36.5688 117.019L33.7363 121.066L32.3114 120.056L37.2933 112.938L38.3835 113.712L38.2524 118.56L42.7375 116.794H42.7444ZM37.4313 123.676L40.0499 119.935L42.1648 119.959L38.8562 124.686L37.4313 123.676Z" fill="white"></path><path d="M45.9737 120.275L45.0077 122.208L47.7194 123.568L47.0018 125.016L44.2866 123.652L43.3827 125.46L47.0225 127.289L46.3808 128.58L41.1919 125.973L45.0594 118.189L50.2449 120.792L49.6101 122.1L45.9737 120.275Z" fill="white"></path><path d="M55.5235 122.756L52.6979 130.982L51.0143 130.399L53.3465 123.607L50.9384 122.77L51.4317 121.337L55.5201 122.76L55.5235 122.756ZM55.7685 122.843L57.9282 123.596L57.4348 125.03L55.9858 124.526L55.765 122.847L55.7685 122.843Z" fill="white"></path><path d="M61.6405 131.676L57.7627 130.888L56.8173 132.269L54.9991 131.901L60.1915 124.079L62.0201 124.45L58.6735 129.489L61.3266 130.027L60.7159 126.859L62.3237 125.956L63.783 133.689L61.9648 133.321L61.6371 131.683L61.6405 131.676Z" fill="white"></path><path d="M66.205 133.769L66.3568 125.064L68.0887 125.095L67.9369 133.796L66.2084 133.765L66.205 133.769ZM68.2267 132.064L72.0321 132.134L72.0011 133.873L69.1582 133.821L68.2233 132.064H68.2267Z" fill="white"></path><path d="M74.323 133.73L73.3293 125.085L75.0475 124.884L76.0411 133.529L74.323 133.73ZM76.0998 131.773L79.881 131.332L80.0811 133.061L77.2555 133.39L76.0998 131.773Z" fill="white"></path><path d="M87.9612 131.263L82.3341 132.658L80.264 124.203L85.8911 122.808L86.2499 124.221L82.303 125.2L82.8067 127.282L85.7566 126.57L86.143 128.139L83.207 128.93L83.6693 130.839L87.6196 129.861L87.9612 131.263Z" fill="white"></path><path d="M94.2368 125.574C94.0954 125.741 93.9574 125.876 93.8194 125.987C93.6814 126.095 93.5054 126.206 93.2915 126.321C93.0776 126.435 92.8051 126.564 92.4773 126.709C92.1495 126.855 91.7286 127.049 91.2111 127.289L92.2807 129.628L90.6971 130.36L87.0848 122.451L90.6453 120.806C91.0283 120.629 91.4181 120.539 91.8183 120.532C92.2186 120.525 92.6015 120.591 92.9672 120.726C93.3329 120.861 93.6676 121.07 93.9712 121.344C94.2748 121.618 94.5129 121.948 94.6888 122.333C94.9476 122.899 95.0304 123.471 94.9372 124.051C94.8441 124.63 94.6129 125.141 94.2403 125.578L94.2368 125.574ZM90.4866 125.706L92.4635 124.794C92.8016 124.637 93.0293 124.387 93.1535 124.044C93.2777 123.7 93.2467 123.329 93.0673 122.93C92.9914 122.763 92.8879 122.617 92.7533 122.492C92.6188 122.368 92.4704 122.27 92.3083 122.201C92.1461 122.132 91.9736 122.093 91.7942 122.09C91.6148 122.086 91.4423 122.121 91.2801 122.197L89.3032 123.11L90.4728 125.675V125.685L90.4866 125.706ZM97.2074 127.348L95.2098 128.271L93.326 127.334L94.2472 125.869L97.2074 127.348Z" fill="white"></path><path d="M96.093 117.779L100.561 125.231L99.0152 126.168L94.5439 118.716L96.0896 117.779H96.093Z" fill="white"></path><path d="M107.175 120.84L102.365 124.099L97.5282 116.884L102.334 113.622L103.152 114.822L99.7811 117.11L100.989 118.914L103.493 117.2L104.39 118.539L101.889 120.264L103 121.93L106.371 119.643L107.175 120.84Z" fill="white"></path></svg> 