<svg width="196" height="32" viewBox="0 0 196 32" fill="none" xmlns="http://www.w3.org/2000/svg">
<g id="logo" clip-path="url(#clip0_1917_89888)">
<g id="Group">
<path id="Vector" d="M64.4385 5.64231C64.4385 5.56171 64.4385 5.4005 64.5199 5.4005C64.5199 5.31989 64.6826 5.23929 64.764 5.15868C65.0081 4.99747 65.8217 4.91687 67.0421 4.91687C68.4253 4.91687 69.2389 4.99747 69.483 5.23929C69.5643 5.31989 69.6457 5.4811 69.6457 5.64231L69.5643 8.70528C69.5643 8.86649 69.5643 8.9471 69.483 8.9471C69.483 9.0277 69.3202 9.10831 69.2389 9.18891C68.9948 9.35012 68.1812 9.43072 66.9608 9.43072C65.5776 9.43072 64.764 9.35012 64.5199 9.10831C64.4385 9.0277 64.3572 8.86649 64.3572 8.70528L64.4385 5.64231Z" fill="#1D1D1D"/>
<path id="Vector_2" d="M87.4638 21.1184L87.9519 20.7154C88.6028 20.3124 89.0096 20.1512 89.2537 20.1512C89.8233 20.1512 90.4742 20.7154 91.125 21.8439C91.5319 22.5693 91.6946 23.0529 91.6946 23.5366C91.6946 24.0202 91.5318 24.262 91.2878 24.5844C91.0437 24.8262 90.7182 25.068 90.3928 25.3099C90.0673 25.5517 89.7419 25.7129 89.4165 25.9547C89.091 26.1159 88.5215 26.4383 87.5451 26.6801C86.5688 27.0026 85.6738 27.1638 84.8602 27.1638C83.9652 27.1638 83.0702 27.0026 82.1753 26.7607C81.2803 26.5189 80.3853 26.1159 79.409 25.5517C78.4326 24.9874 77.619 24.262 76.8868 23.456C76.1545 22.6499 75.5036 21.5215 75.0155 20.2318C74.5273 18.9421 74.2832 17.4912 74.2832 15.9597C74.2832 14.4283 74.5273 13.058 75.0155 11.7683C75.5036 10.5592 76.0732 9.51137 76.8868 8.70533C77.619 7.89928 78.514 7.17384 79.409 6.69022C81.1989 5.64236 82.9889 5.07812 84.8602 5.07812C85.7552 5.07812 86.5688 5.23933 87.4638 5.48115C88.3588 5.80357 89.0096 6.04538 89.4978 6.3678L90.1487 6.77082C90.4742 7.01263 90.7182 7.17384 90.881 7.33505C91.3691 7.73807 91.6132 8.2217 91.6132 8.70533C91.6132 9.18896 91.4505 9.75319 91.0437 10.3174C90.3114 11.3653 89.6605 11.9295 89.091 11.9295C88.7656 11.9295 88.2774 11.6877 87.7079 11.2847C86.9756 10.6398 85.9179 10.2368 84.6161 10.2368C83.3957 10.2368 82.2566 10.6398 81.1176 11.5265C80.548 11.9295 80.1412 12.5743 79.7344 13.3804C79.3276 14.1864 79.1649 15.0731 79.1649 16.0403C79.1649 17.0076 79.3276 17.8942 79.7344 18.7003C80.0599 19.5063 80.548 20.0706 81.1176 20.5542C82.2566 21.4408 83.3957 21.8439 84.6161 21.8439C85.1856 21.8439 85.7552 21.7633 86.2434 21.6021C86.8942 21.4408 87.3011 21.2796 87.4638 21.1184Z" fill="#EB5937"/>
<path id="Vector_3" d="M130.016 5.88409C130.179 5.56167 130.423 5.31985 130.829 5.15865C131.155 5.07804 131.643 4.99744 132.131 4.99744C132.619 4.99744 133.108 5.07804 133.433 5.15865C133.758 5.23925 134.003 5.40046 134.165 5.56167C134.328 5.72288 134.409 5.88409 134.491 6.2065C134.572 6.52892 134.653 7.01255 134.653 7.73799L134.572 24.5037C134.572 24.9874 134.572 25.3098 134.491 25.5516C134.491 25.7934 134.409 26.0352 134.247 26.3576C134.003 26.9219 133.27 27.1637 132.131 27.1637C131.399 27.1637 130.911 27.0831 130.667 27.0025C130.423 26.8413 130.179 26.6801 130.016 26.4382C125.866 20.3929 123.181 16.4433 121.88 14.5894V24.5037C121.88 24.9874 121.88 25.3098 121.798 25.5516C121.798 25.7934 121.717 26.0352 121.554 26.3576C121.31 26.9219 120.578 27.1637 119.439 27.1637C118.3 27.1637 117.568 26.9219 117.323 26.3576C117.161 26.0352 117.079 25.7934 117.079 25.5516C117.079 25.3098 117.079 24.9874 117.079 24.5037L117.161 7.65739C117.161 6.93195 117.242 6.36771 117.405 5.96469C117.568 5.64227 117.812 5.40046 118.218 5.23925C118.544 5.15865 119.032 5.07804 119.602 5.07804C120.171 5.07804 120.578 5.15865 120.903 5.23925C121.229 5.31985 121.473 5.48106 121.554 5.64227C121.636 5.72288 121.798 5.96469 122.205 6.44832C126.029 12.2518 128.633 16.0403 129.934 17.8942V7.65739C129.772 6.77074 129.853 6.2065 130.016 5.88409Z" fill="#EB5937"/>
<path id="Vector_4" d="M149.217 5.88409C149.38 5.56167 149.624 5.31985 150.031 5.15865C150.356 5.07804 150.844 4.99744 151.333 4.99744C151.821 4.99744 152.309 5.07804 152.634 5.15865C152.96 5.23925 153.204 5.40046 153.367 5.56167C153.529 5.72288 153.611 5.88409 153.692 6.2065C153.773 6.52892 153.855 7.01255 153.855 7.73799L153.773 24.4231C153.773 24.9068 153.773 25.2292 153.692 25.471C153.692 25.7128 153.611 25.9546 153.448 26.277C153.204 26.8413 152.472 27.0831 151.333 27.0831C150.6 27.0831 150.112 27.0025 149.868 26.9219C149.624 26.7607 149.38 26.5995 149.217 26.3576C145.068 20.3123 142.383 16.3627 141.081 14.5088V24.4231C141.081 24.9068 141.081 25.2292 141 25.471C141 25.7128 140.918 25.9546 140.756 26.277C140.512 26.8413 139.779 27.0831 138.64 27.0831C137.501 27.0831 136.769 26.8413 136.525 26.277C136.362 25.9546 136.281 25.7128 136.281 25.471C136.281 25.2292 136.281 24.9068 136.281 24.4231L136.362 7.57678C136.362 6.85134 136.443 6.28711 136.606 5.88409C136.769 5.56167 137.013 5.31985 137.42 5.15865C137.745 5.07804 138.233 4.99744 138.803 4.99744C139.373 4.99744 139.779 5.07804 140.105 5.15865C140.43 5.23925 140.674 5.40046 140.756 5.56167C140.837 5.64227 141 5.88409 141.407 6.36771C145.231 12.1712 147.834 15.9597 149.136 17.8136V7.57678C148.973 6.77074 149.055 6.2065 149.217 5.88409Z" fill="#EB5937"/>
<path id="Vector_5" d="M160.364 21.6826H168.825C169.232 21.6826 169.558 21.6826 169.802 21.7632C170.046 21.7632 170.29 21.9244 170.534 22.0856C171.022 22.408 171.266 23.1335 171.266 24.4231C171.266 25.7934 170.941 26.6801 170.208 26.9219C169.883 27.0025 169.395 27.0831 168.744 27.0831H157.841C156.54 27.0831 155.807 26.6801 155.563 25.9546C155.482 25.6322 155.401 25.1486 155.401 24.4231L155.482 7.65739C155.482 6.60953 155.645 5.96469 156.052 5.56167C156.377 5.15865 157.028 4.99744 158.004 4.99744H168.907C169.313 4.99744 169.639 4.99744 169.883 5.07804C170.127 5.07804 170.371 5.23925 170.615 5.40046C171.103 5.72288 171.348 6.44832 171.348 7.73799C171.348 9.10827 171.022 9.99492 170.29 10.2367C169.964 10.3173 169.476 10.3979 168.825 10.3979H160.364V13.4609H165.815C166.222 13.4609 166.547 13.4609 166.791 13.5415C167.035 13.5415 167.279 13.7027 167.524 13.8639C168.012 14.1864 168.256 14.9118 168.256 16.2015C168.256 17.5717 167.93 18.4584 167.198 18.7002C166.873 18.7808 166.384 18.8614 165.734 18.8614H160.364V21.6826Z" fill="#EB5937"/>
<path id="Vector_6" d="M5.61405 20.3929L12.2857 6.44836C12.5298 5.96473 12.8552 5.64231 13.262 5.31989C13.6688 5.07808 14.157 4.91687 14.6452 4.91687C15.7029 4.91687 16.5165 5.4005 17.0047 6.44836L24.8967 23.0529C25.2222 23.6977 25.3849 24.262 25.3849 24.5844C25.3849 25.3098 24.8154 25.9547 23.6763 26.5189C23.0254 26.8413 22.4559 27.0025 22.1305 27.0025C21.7236 27.0025 21.3982 26.9219 21.1541 26.7607C20.91 26.5995 20.7473 26.3577 20.6659 26.1965C20.5846 26.0353 20.4219 25.7128 20.1778 25.3098L18.6319 22.0856H10.4957L8.94988 25.3098C8.78716 25.7128 8.62443 25.9547 8.46171 26.1965C8.38035 26.3577 8.13626 26.5189 7.89218 26.7607C7.64809 26.9219 7.32265 27.0025 6.91584 27.0025C6.50903 27.0025 6.02086 26.8413 5.36997 26.5189C4.23091 25.9547 3.66138 25.3098 3.66138 24.5844C3.66138 24.262 3.8241 23.7783 4.14955 23.0529L5.61405 20.3929ZM14.6452 13.6222L12.6925 17.733H16.5979L14.6452 13.6222Z" fill="#1D1D1D"/>
<path id="Vector_7" d="M43.5285 23.2141C43.8539 23.9395 43.9353 24.4231 43.9353 24.7455C43.9353 25.471 43.2844 26.1158 42.064 26.6801C41.4131 26.9219 40.9249 27.0831 40.5181 27.0831C40.1113 27.0831 39.7859 27.0025 39.5418 26.7607C39.2977 26.5995 39.135 26.3576 38.9722 26.1964C38.8095 25.7934 37.9959 24.0201 36.6941 20.7959L35.7991 20.8765H32.0565V24.5037C32.0565 24.9874 32.0565 25.3098 31.9751 25.5516C31.9751 25.7934 31.8124 26.0352 31.7311 26.3576C31.487 26.9219 30.6734 27.1637 29.4529 27.1637C28.0698 27.1637 27.2562 26.7607 27.0121 26.0352C26.9307 25.7128 26.8494 25.1486 26.8494 24.5037L26.9307 7.65739C26.9307 7.17376 26.9307 6.85134 27.0121 6.60953C27.0121 6.36771 27.1748 6.1259 27.2562 5.80348C27.5003 5.23925 28.3139 4.99744 29.5343 4.99744H35.8805C37.5891 4.99744 39.2977 5.64227 40.9249 6.93195C41.7385 7.57678 42.3894 8.38283 42.8776 9.43069C43.3658 10.4785 43.6098 11.6876 43.6098 12.9773C43.6098 15.2342 42.8776 17.0881 41.4131 18.539C41.9826 19.5869 42.6335 21.1183 43.5285 23.2141ZM32.3006 15.5566H36.0432C36.6128 15.5566 37.1823 15.3148 37.7518 14.9118C38.3213 14.5088 38.6468 13.7833 38.6468 12.9773C38.6468 12.0906 38.4027 11.4458 37.8332 10.9622C37.2636 10.4785 36.6941 10.3173 36.0432 10.3173H32.3006V15.5566Z" fill="#1D1D1D"/>
<path id="Vector_8" d="M47.5154 4.91687L60.6959 4.99747C61.3468 4.99747 61.7536 5.07808 62.0791 5.23929C62.4045 5.4005 62.5673 5.64231 62.6486 5.96473C62.73 6.28715 62.8113 6.69017 62.8113 7.2544C62.8113 7.73803 62.73 8.22166 62.6486 8.54407C62.5673 8.86649 62.4045 9.10831 62.1604 9.18891C61.835 9.35012 61.2655 9.43072 60.6959 9.43072H56.6279L56.5465 24.5844C56.5465 25.068 56.5465 25.3904 56.4651 25.6322C56.4651 25.874 56.3838 26.1159 56.2211 26.4383C56.0583 26.7607 55.8142 26.9219 55.4074 27.0831C55.0006 27.1637 54.5125 27.2443 53.9429 27.2443C53.3734 27.2443 52.8852 27.1637 52.4784 27.0831C52.153 26.9219 51.8275 26.7607 51.7462 26.4383C51.5834 26.1159 51.5021 25.874 51.5021 25.6322C51.5021 25.3904 51.4207 25.068 51.4207 24.5844L51.5021 9.43072H47.434C46.7831 9.43072 46.3763 9.35012 46.0509 9.18891C45.7254 9.0277 45.5627 8.78589 45.4813 8.46347C45.4 8.14105 45.3186 7.73803 45.3186 7.1738C45.3186 6.69017 45.4 6.20654 45.4813 5.88412C45.5627 5.56171 45.7254 5.31989 45.9695 5.23929C46.3763 4.99747 46.8645 4.91687 47.5154 4.91687Z" fill="#1D1D1D"/>
<path id="Vector_9" d="M64.4385 12.9773C64.4385 12.4937 64.4385 12.1713 64.5199 11.9295C64.5199 11.6877 64.6826 11.4458 64.764 11.1234C65.0081 10.5592 65.8217 10.3174 67.0421 10.3174C68.4253 10.3174 69.2389 10.7204 69.483 11.4458C69.5643 11.7683 69.6457 12.2519 69.6457 12.9773L69.5643 24.4232C69.5643 24.9068 69.5643 25.2292 69.483 25.471C69.483 25.7128 69.3202 25.9547 69.2389 26.1965C68.9948 26.7607 68.1812 27.0025 66.9608 27.0025C65.5776 27.0025 64.764 26.5995 64.5199 25.8741C64.4385 25.5516 64.3572 25.068 64.3572 24.3426L64.4385 12.9773Z" fill="#1D1D1D"/>
<path id="Vector_10" d="M182.738 12.4131L177.531 6.04533C176.88 5.23929 176.311 4.91687 175.823 4.91687C175.334 4.91687 174.765 5.23929 174.033 5.96473C173.3 6.60957 172.975 7.2544 172.975 7.73803C172.975 8.22166 173.3 8.86649 173.951 9.59193L179.484 16.0403L187.945 25.874C188.596 26.6801 189.166 27.0025 189.654 27.0025C190.142 27.0025 190.712 26.6801 191.444 25.9547C192.176 25.3098 192.502 24.665 192.502 24.1814C192.502 23.6977 192.176 23.0529 191.607 22.3274L182.738 12.4131Z" fill="#EB5937"/>
<path id="Vector_11" d="M111.628 7.73804C111.221 7.33502 110.733 7.0126 110.326 6.69019L100.482 26.2771C100.97 26.4383 101.539 26.5995 102.109 26.7607L111.628 7.73804Z" fill="#EB5937"/>
<path id="Vector_12" d="M97.7966 24.8262C98.2034 25.1486 98.6103 25.471 99.0984 25.7129L109.025 5.96474C108.536 5.72293 108.13 5.56172 107.641 5.40051L97.7966 24.8262Z" fill="#EB5937"/>
<path id="Vector_13" d="M103.655 27.0025C103.899 27.0025 104.143 27.0025 104.387 27.0025C107.397 27.0025 110.001 25.9546 112.116 23.7783C114.232 21.602 115.289 18.942 115.289 15.8791C115.289 13.1385 114.476 10.801 112.767 8.86646L103.655 27.0025Z" fill="#EB5937"/>
<path id="Vector_14" d="M96.6575 23.8589L106.095 5.07808C105.526 4.99747 104.956 4.91687 104.306 4.91687C102.922 4.91687 101.539 5.15868 100.237 5.72292C98.9357 6.28715 97.7966 7.01259 96.7389 7.97984C95.7626 8.9471 94.9489 10.1562 94.2981 11.5264C93.7285 12.9773 93.4031 14.4282 93.4031 16.1209C93.4844 19.1033 94.5421 21.6826 96.6575 23.8589Z" fill="#EB5937"/>
<path id="Vector_15" d="M182.494 12.4131L187.701 6.04533C188.352 5.23929 188.922 4.91687 189.41 4.91687C189.898 4.91687 190.468 5.23929 191.2 5.96473C191.932 6.60957 192.258 7.2544 192.258 7.73803C192.258 8.22166 191.932 8.86649 191.281 9.59193L185.749 16.0403L177.206 25.9547C176.555 26.7607 175.985 27.0831 175.497 27.0831C175.009 27.0831 174.439 26.7607 173.707 26.0353C172.975 25.3904 172.649 24.7456 172.649 24.262C172.649 23.7783 172.975 23.1335 173.544 22.4081L182.494 12.4131Z" fill="#F16241"/>
</g>
</g>
<defs>
<clipPath id="clip0_1917_89888">
<rect width="196" height="32" fill="white"/>
</clipPath>
</defs>
</svg>
